<svg xmlns="http://www.w3.org/2000/svg" width="70" height="70" viewBox="0 0 70 70">
  <g id="Group_5718" data-name="Group 5718" transform="translate(-539.537 -650)">
    <path id="Path_10283" data-name="Path 10283" d="M689.93,796.148a2.692,2.692,0,0,0-2,.894l-19.379,21.583-9.026-8.986a2.692,2.692,0,0,0-3.8,3.816l11.035,10.986a2.674,2.674,0,0,0,1.9.785l.074,0a2.7,2.7,0,0,0,1.928-.892l21.275-23.692a2.694,2.694,0,0,0-2-4.491Z" transform="translate(-99.24 -125.687)" fill="#52891e"/>
    <path id="Path_10284" data-name="Path 10284" d="M574.537,650a35,35,0,1,0,35,35A35.039,35.039,0,0,0,574.537,650Zm0,64.615A29.615,29.615,0,1,1,604.152,685,29.649,29.649,0,0,1,574.537,714.615Z" fill="#52891e"/>
  </g>
</svg>
