<svg xmlns="http://www.w3.org/2000/svg" width="94.844" height="94.844" viewBox="0 0 94.844 94.844">
  <g id="Group_5718" data-name="Group 5718" transform="translate(-526.537 -638.455)">
    <g id="Group_6034" data-name="Group 6034" transform="translate(526.537 638.455)">
      <path id="Path_10480" data-name="Path 10480" d="M0,0H94.844V94.844H0Z" fill="none"/>
      <path id="Path_10481" data-name="Path 10481" d="M4,19.807V11.9A7.9,7.9,0,0,1,11.9,4h7.9" transform="translate(11.807 11.807)" fill="none" stroke="#d60b1c" stroke-linecap="round" stroke-linejoin="round" stroke-width="6"/>
      <path id="Path_10482" data-name="Path 10482" d="M4,16v7.9a7.9,7.9,0,0,0,7.9,7.9h7.9" transform="translate(11.807 47.229)" fill="none" stroke="#d60b1c" stroke-linecap="round" stroke-linejoin="round" stroke-width="6"/>
      <path id="Path_10483" data-name="Path 10483" d="M16,4h7.9a7.9,7.9,0,0,1,7.9,7.9v7.9" transform="translate(47.229 11.807)" fill="none" stroke="#d60b1c" stroke-linecap="round" stroke-linejoin="round" stroke-width="6"/>
      <path id="Path_10484" data-name="Path 10484" d="M16,31.807h7.9a7.9,7.9,0,0,0,7.9-7.9V16" transform="translate(47.229 47.229)" fill="none" stroke="#d60b1c" stroke-linecap="round" stroke-linejoin="round" stroke-width="6"/>
      <path id="Path_10485" data-name="Path 10485" d="M9,10h.04" transform="translate(26.566 29.518)" fill="none" stroke="#d60b1c" stroke-linecap="round" stroke-linejoin="round" stroke-width="6"/>
      <path id="Path_10486" data-name="Path 10486" d="M15,10h.04" transform="translate(44.277 29.518)" fill="none" stroke="#d60b1c" stroke-linecap="round" stroke-linejoin="round" stroke-width="6"/>
      <path id="Path_10487" data-name="Path 10487" d="M9.5,18.151a13.831,13.831,0,0,1,19.759,0" transform="translate(28.042 41.324)" fill="none" stroke="#d60b1c" stroke-linecap="round" stroke-linejoin="round" stroke-width="6"/>
    </g>
  </g>
</svg>
