<svg id="Group_5903" data-name="Group 5903" xmlns="http://www.w3.org/2000/svg" width="84" height="84" viewBox="0 0 84 84">
  <path id="Path_10331" data-name="Path 10331" d="M0,0H84V84H0Z" fill="none"/>
  <line id="Line_265" data-name="Line 265" x2="56" transform="translate(14 24)" fill="none" stroke="#000" stroke-linecap="round" stroke-linejoin="round" stroke-width="6"/>
  <line id="Line_266" data-name="Line 266" y2="21" transform="translate(35 39)" fill="none" stroke="#000" stroke-linecap="round" stroke-linejoin="round" stroke-width="6"/>
  <line id="Line_267" data-name="Line 267" y2="21" transform="translate(49 39)" fill="none" stroke="#000" stroke-linecap="round" stroke-linejoin="round" stroke-width="6"/>
  <path id="Path_10332" data-name="Path 10332" d="M5,7,8.5,49a7,7,0,0,0,7,7h28a7,7,0,0,0,7-7L54,7" transform="translate(12.5 17.5)" fill="none" stroke="#000" stroke-linecap="round" stroke-linejoin="round" stroke-width="6"/>
  <path id="Path_10333" data-name="Path 10333" d="M9,17V6.5A3.5,3.5,0,0,1,12.5,3h14A3.5,3.5,0,0,1,30,6.5V17" transform="translate(22.5 6.5)" fill="none" stroke="#000" stroke-linecap="round" stroke-linejoin="round" stroke-width="6"/>
</svg>
